<?xml version="1.0" encoding="UTF-8" standalone="no"?>
<!DOCTYPE svg PUBLIC "-//W3C//DTD SVG 1.1//EN" "http://www.w3.org/Graphics/SVG/1.1/DTD/svg11.dtd">
<svg width="100%" height="100%" viewBox="0 0 547 321" version="1.1" xmlns="http://www.w3.org/2000/svg" xmlns:xlink="http://www.w3.org/1999/xlink" xml:space="preserve" xmlns:serif="http://www.serif.com/" style="fill-rule:evenodd;clip-rule:evenodd;stroke-linejoin:round;stroke-miterlimit:2;">
    <g transform="matrix(1,0,0,1,-1147.693111,-606.274286)">
        <g transform="matrix(1,0,0,1,48,14.774286)">
            <g transform="matrix(-1,0,0,-1,1868.39028,1505.312848)">
                <path d="M439.702,827.847C439.765,827.132 437.664,827.562 438.27,826.649L636.207,826.761L694.176,826.733C713.362,826.736 734.093,823.343 748.587,838.043C756.86,846.51 761.389,857.945 761.16,869.782C761.045,879.825 758.481,886.674 753.112,894.894C743.542,905.119 736.074,911.159 721.236,911.242C688.966,911.423 656.691,911.122 624.416,911.134L433.81,911.134C436.477,910.03 442.357,907.373 444.855,905.93C446.565,904.942 451.696,901.419 451.696,901.419C457.043,896.711 459.898,892.272 462.995,885.734C467.768,875.396 468.138,863.563 464.02,852.947C459.231,840.314 451.649,833.125 439.702,827.847Z" style="fill:rgb(253,142,81);fill-rule:nonzero;stroke:black;stroke-width:5px;"/>
                <path d="M234.222,903.183C234.938,900.692 235.821,896.467 238.215,895.094C245.12,891.132 374.299,893.236 391.914,893.338C404.233,893.41 420.32,895.172 432.091,893.123C436.775,892.315 441.102,890.102 444.499,886.777C449.517,881.777 452.279,874.946 452.147,867.863C451.575,835.271 414.041,841.756 391.764,841.732L279.896,841.831C266.257,841.845 252.254,842.181 238.725,841.349C233.198,839.769 233.999,828.965 237.88,827.871C249.755,824.523 270.717,825.996 282.884,826.075L339.474,826.117C364.831,826.11 414.621,824.844 437.702,827.847C449.649,833.125 458.231,840.314 463.02,852.947C467.138,863.563 466.768,875.396 461.995,885.734C458.898,892.272 455.043,896.711 449.696,901.419L441.347,906.387C429.316,912.868 395.733,911.085 381.149,911.097L308.306,911.12C287.901,911.141 261.187,911.689 240.37,910.639C237.624,910.501 235.405,905.677 234.222,903.183Z" style="fill:rgb(253,142,81);fill-rule:nonzero;stroke:black;stroke-width:5px;"/>
                <path d="M242.821,843.554C285.168,843.223 327.516,843.115 369.863,843.231C389.817,843.222 410.642,842.318 430.513,843.804C441.199,844.603 450.554,857.157 450.696,867.646C450.72,874.469 448.013,881.018 443.179,885.832C440.239,888.728 436.137,891.144 432.054,891.374C414.289,892.378 394.394,891.678 376.574,891.585L265.328,891.56L243.166,891.714C246.775,882.983 249.847,876.814 254.28,868.435C272.108,867.995 422.161,869.76 428.795,867.281L428.791,867.23C413.223,865.829 384.246,866.632 367.632,866.628L253.862,866.645C249.638,858.697 246.48,851.799 242.821,843.554Z" style="fill:white;fill-rule:nonzero;stroke:black;stroke-width:5px;"/>
            </g>
            <g transform="matrix(-1,0,0,-1,1878.361392,1664.312848)">
                <path d="M439.702,827.847C439.765,827.132 437.664,827.562 438.27,826.649L636.207,826.761L694.176,826.733C713.362,826.736 734.093,823.343 748.587,838.043C756.86,846.51 761.389,857.945 761.16,869.782C761.045,879.825 758.481,886.674 753.112,894.894C743.542,905.119 736.074,911.159 721.236,911.242C688.966,911.423 656.691,911.122 624.416,911.134L433.81,911.134C436.477,910.03 442.357,907.373 444.855,905.93C446.565,904.942 451.696,901.419 451.696,901.419C457.043,896.711 459.898,892.272 462.995,885.734C467.768,875.396 468.138,863.563 464.02,852.947C459.231,840.314 451.649,833.125 439.702,827.847Z" style="fill:rgb(253,142,81);fill-rule:nonzero;stroke:black;stroke-width:5px;"/>
                <path d="M234.222,903.183C234.938,900.692 235.821,896.467 238.215,895.094C245.12,891.132 374.299,893.236 391.914,893.338C404.233,893.41 420.32,895.172 432.091,893.123C436.775,892.315 441.102,890.102 444.499,886.777C449.517,881.777 452.279,874.946 452.147,867.863C451.575,835.271 414.041,841.756 391.764,841.732L279.896,841.831C266.257,841.845 252.254,842.181 238.725,841.349C233.198,839.769 233.999,828.965 237.88,827.871C249.755,824.523 270.717,825.996 282.884,826.075L339.474,826.117C364.831,826.11 414.621,824.844 437.702,827.847C449.649,833.125 458.231,840.314 463.02,852.947C467.138,863.563 466.768,875.396 461.995,885.734C458.898,892.272 455.043,896.711 449.696,901.419L441.347,906.387C429.316,912.868 395.733,911.085 381.149,911.097L308.306,911.12C287.901,911.141 261.187,911.689 240.37,910.639C237.624,910.501 235.405,905.677 234.222,903.183Z" style="fill:rgb(253,142,81);fill-rule:nonzero;stroke:black;stroke-width:5px;"/>
                <path d="M242.821,843.554C285.168,843.223 327.516,843.115 369.863,843.231C389.817,843.222 410.642,842.318 430.513,843.804C441.199,844.603 450.554,857.157 450.696,867.646C450.72,874.469 448.013,881.018 443.179,885.832C440.239,888.728 436.137,891.144 432.054,891.374C414.289,892.378 394.394,891.678 376.574,891.585L265.328,891.56L243.166,891.714C246.775,882.983 249.847,876.814 254.28,868.435C272.108,867.995 422.161,869.76 428.795,867.281L428.791,867.23C413.223,865.829 384.246,866.632 367.632,866.628L253.862,866.645C249.638,858.697 246.48,851.799 242.821,843.554Z" style="fill:white;fill-rule:nonzero;stroke:black;stroke-width:5px;"/>
            </g>
            <g transform="matrix(1,0,0,-1,873,1426.013423)">
                <path d="M494.861,676.698C501.061,676.593 613.152,676.738 613.152,676.738C619.445,677.004 626.133,676.898 632.462,676.817C677.511,676.241 695.828,676.137 740.855,676.167C772.872,676.189 772.909,743.331 740.892,743.331C685.599,743.331 447.555,744.1 447.555,744.1C457.951,739.012 465.48,733.735 470.05,722.498C473.413,714.21 473.247,704.909 469.591,696.747C464.678,685.526 457.414,680.594 446.623,676.45C462.703,676.45 478.782,676.532 494.861,676.698Z" style="fill:rgb(65,150,107);fill-rule:nonzero;stroke:black;stroke-width:5px;"/>
                <path d="M235.181,688.783L375.338,688.826C395.765,688.832 417.22,687.887 437.311,689.265C453.353,690.365 461.33,713.936 449.104,724.739C446.938,726.653 442.786,729.774 439.899,729.966C421.022,731.219 401.772,730.679 382.816,730.69L256.604,730.767C249.833,730.787 242.925,730.962 236.141,731.059C239.078,723.809 242.066,717.269 245.374,710.175L365.167,710.054C385.224,710.073 413.076,710.887 432.597,709.463C427.125,707.674 382.066,708.39 372.466,708.394L245.518,708.44C242.265,703.157 238.091,694.462 235.181,688.783Z" style="fill:white;fill-rule:nonzero;stroke:black;stroke-width:5px;"/>
                <path d="M426.791,732.657C436.156,732.697 443.344,732.877 450.665,725.45C454.982,721.102 457.363,715.195 457.268,709.068C457.053,698.277 445.966,687.705 436.312,687.2C423.669,686.538 407.892,687.223 395.101,687.172L271.336,687.037C258.962,687.026 246.133,687.228 233.754,686.755C229.47,686.592 229.579,681.727 230.512,678.495C235.216,674.786 263.995,676.624 271.476,676.614L353.225,676.554L408.208,676.565C418.4,676.546 427.993,676.395 438.58,676.981C458.232,678.069 472.564,694.562 470.675,714.241C469.371,727.821 454.964,743.149 440.704,743.328C424.141,744.214 407.552,743.941 390.993,743.971L298.995,743.983L252.729,743.86C246.025,743.843 234.092,745.578 229.658,741.081C228.77,737.982 229.094,735.729 231.153,733.2C235.476,732.465 249.509,732.576 254.445,732.556L299.659,732.573C341.513,732.665 385.161,731.758 426.791,732.657Z" style="fill:rgb(65,150,107);fill-rule:nonzero;stroke:black;stroke-width:5px;"/>
                <path d="M231.153,733.2C235.476,732.465 249.509,732.576 254.445,732.556L299.659,732.573C341.513,732.665 385.161,731.758 426.791,732.657C383.1,734.206 336.422,732.859 292.469,733.415C282.759,733.538 239.124,734.256 231.153,733.2Z" style="fill:rgb(29,101,61);fill-rule:nonzero;stroke:black;stroke-width:5px;"/>
            </g>
            <g transform="matrix(1,0,0,-1,873,1585.475418)">
                <path d="M494.861,676.698C501.061,676.593 613.152,676.738 613.152,676.738C619.445,677.004 626.133,676.898 632.462,676.817C677.511,676.241 695.828,676.137 740.855,676.167C772.872,676.189 772.909,743.331 740.892,743.331C685.599,743.331 447.555,744.1 447.555,744.1C457.951,739.012 465.48,733.735 470.05,722.498C473.413,714.21 473.247,704.909 469.591,696.747C464.678,685.526 457.414,680.594 446.623,676.45C462.703,676.45 478.782,676.532 494.861,676.698Z" style="fill:rgb(65,150,107);fill-rule:nonzero;stroke:black;stroke-width:5px;"/>
                <path d="M235.181,688.783L375.338,688.826C395.765,688.832 417.22,687.887 437.311,689.265C453.353,690.365 461.33,713.936 449.104,724.739C446.938,726.653 442.786,729.774 439.899,729.966C421.022,731.219 401.772,730.679 382.816,730.69L256.604,730.767C249.833,730.787 242.925,730.962 236.141,731.059C239.078,723.809 242.066,717.269 245.374,710.175L365.167,710.054C385.224,710.073 413.076,710.887 432.597,709.463C427.125,707.674 382.066,708.39 372.466,708.394L245.518,708.44C242.265,703.157 238.091,694.462 235.181,688.783Z" style="fill:white;fill-rule:nonzero;stroke:black;stroke-width:5px;"/>
                <path d="M426.791,732.657C436.156,732.697 443.344,732.877 450.665,725.45C454.982,721.102 457.363,715.195 457.268,709.068C457.053,698.277 445.966,687.705 436.312,687.2C423.669,686.538 407.892,687.223 395.101,687.172L271.336,687.037C258.962,687.026 246.133,687.228 233.754,686.755C229.47,686.592 229.579,681.727 230.512,678.495C235.216,674.786 263.995,676.624 271.476,676.614L353.225,676.554L408.208,676.565C418.4,676.546 427.993,676.395 438.58,676.981C458.232,678.069 472.564,694.562 470.675,714.241C469.371,727.821 454.964,743.149 440.704,743.328C424.141,744.214 407.552,743.941 390.993,743.971L298.995,743.983L252.729,743.86C246.025,743.843 234.092,745.578 229.658,741.081C228.77,737.982 229.094,735.729 231.153,733.2C235.476,732.465 249.509,732.576 254.445,732.556L299.659,732.573C341.513,732.665 385.161,731.758 426.791,732.657Z" style="fill:rgb(65,150,107);fill-rule:nonzero;stroke:black;stroke-width:5px;"/>
                <path d="M231.153,733.2C235.476,732.465 249.509,732.576 254.445,732.556L299.659,732.573C341.513,732.665 385.161,731.758 426.791,732.657C383.1,734.206 336.422,732.859 292.469,733.415C282.759,733.538 239.124,734.256 231.153,733.2Z" style="fill:rgb(29,101,61);fill-rule:nonzero;stroke:black;stroke-width:5px;"/>
            </g>
        </g>
    </g>
</svg>
