<?xml version="1.0" encoding="utf-8" ?><svg xmlns="http://www.w3.org/2000/svg" xmlns:xlink="http://www.w3.org/1999/xlink" width="1024" height="1024" viewBox="0 0 1024 1024"><path fill="#7B68EE" d="M0 0L1024 0L1024 1024L0 1024L0 0Z"/><path d="M472.784 232.247L551.923 232.2C566.744 232.196 582.965 231.866 597.682 232.354C597.929 237.556 597.648 244.397 597.66 249.818L597.685 288.559L597.604 395.083L610.076 394.97L610.392 787.912C634.613 787.761 658.834 787.754 683.055 787.892L682.894 489.444L697.606 489.423C698.091 444.305 697.291 399.046 697.651 353.919C697.709 346.638 697.519 339.343 697.883 332.07C736.077 330.755 775.204 332.121 813.499 331.565C829.9 331.327 847.993 331.181 864.35 331.886L864.32 426.909C864.271 447.12 863.809 469.003 864.35 489.092C869.824 489.356 875.507 489.379 881.001 489.475L881.03 788.25C903.39 789.288 930.58 788.156 953.57 788.506C954.142 802.677 953.595 820.518 953.574 834.941L953.481 925.214C919.381 924.333 882.213 925.006 847.886 924.998L651.25 924.986L69.9535 925.196C70.0777 879.64 69.5718 833.557 70.201 788.065C92.8852 787.437 118.648 788.046 141.572 788.061L141.63 659.838L141.6 616.965C141.6 609.405 141.36 599.855 141.807 592.464L158.163 592.51L157.975 487.643C157.975 470.011 157.449 448.433 158.275 431.154C166.289 430.826 175.161 430.944 183.194 431.081C230.872 431.894 278.955 430.155 326.579 431.144C327.035 435.779 326.875 444.845 326.911 449.726L327.034 484.965L326.991 592.477C331.56 592.429 336.13 592.464 340.698 592.582C341.135 597.084 340.814 607.513 340.808 612.455L340.79 652.57L340.883 787.962L412.927 788.027C413.435 738.237 412.787 687.941 412.716 638.128L412.995 395.004L425.986 394.997L426.09 232.467C441.436 232.158 457.387 232.313 472.784 232.247Z"/><path fill="#2ECC71" d="M72.8386 796.066C72.802 794.47 72.5868 792.444 73.1717 791.045C75.3915 790.531 86.7982 790.753 89.9946 790.752L128.133 790.717L284.421 790.471L951.258 790.99L951.19 795.99L951.102 922.15C912.983 921.632 873.638 922.07 835.446 922.051L605.889 922.043L72.806 922.278C72.2224 880.592 72.9326 837.886 72.8386 796.066Z"/><path fill="white" d="M72.8386 796.066C72.802 794.47 72.5868 792.444 73.1717 791.045C75.3915 790.531 86.7982 790.753 89.9946 790.752L128.133 790.717L284.421 790.471L951.258 790.99L951.19 795.99C910.172 796.627 867.802 796.086 826.638 796.06L606.881 795.92L72.8386 796.066Z"/><path fill="#FF8C42" d="M415.275 559.586C415.228 557.226 414.79 556.807 415.857 555.268C418.011 554.789 428.989 554.991 431.895 554.995L468.627 555.04L561.885 555.034C568.089 555.033 606.171 554.669 607.742 555.453C608.437 556.856 608.177 558.026 608.082 559.621L608.004 787.895L415.523 787.985C414.68 762.051 415.334 733.129 415.393 707.055L415.275 559.586Z"/><path fill="white" d="M415.275 559.586C415.228 557.226 414.79 556.807 415.857 555.268C418.011 554.789 428.989 554.991 431.895 554.995L468.627 555.04L561.885 555.034C568.089 555.033 606.171 554.669 607.742 555.453C608.437 556.856 608.177 558.026 608.082 559.621L415.275 559.586Z"/><path fill="#FF8C42" d="M144.072 599.412C144.052 596.968 143.595 596.509 144.735 594.974C147.161 594.471 176.268 594.818 180.487 594.83L269.298 594.926L314.361 594.762C319.212 594.718 333.384 594.229 337.707 594.731C339.093 596.046 338.617 597.591 338.502 599.502C338.15 605.258 338.418 614.615 338.416 620.586L338.408 661.268L338.467 787.96C312.496 787.727 286.523 787.67 260.551 787.789L144.061 788.043C143.699 767.102 144.045 744.952 144.049 723.903L144.072 599.412Z"/><path fill="white" d="M144.072 599.412C144.052 596.968 143.595 596.509 144.735 594.974C147.161 594.471 176.268 594.818 180.487 594.83L269.298 594.926L314.361 594.762C319.212 594.718 333.384 594.229 337.707 594.731C339.093 596.046 338.617 597.591 338.502 599.502L213.954 599.522C191.731 599.534 166.044 600.153 144.072 599.412Z"/><path fill="#FF8C42" d="M428.407 239.342C428.362 237.778 428.099 236.334 428.856 235.048C432.068 233.773 580.38 234.312 594.522 234.994C595.861 236.108 595.417 236.054 595.65 238.481C595.135 243.279 595.391 251.595 595.392 256.739L595.392 289.196L595.371 394.999C539.668 394.51 483.961 394.473 428.257 394.888C427.556 344.043 428.108 290.399 428.407 239.342Z"/><path fill="white" d="M428.407 239.342C428.362 237.778 428.099 236.334 428.856 235.048C432.068 233.773 580.38 234.312 594.522 234.994C595.861 236.108 595.417 236.054 595.65 238.481C594.407 239.514 594.256 239.449 592.211 239.458C583.126 239.502 573.955 239.443 564.869 239.408L510.334 239.213L456.098 239.278C447.271 239.307 437.065 239.635 428.407 239.342Z"/><path fill="#FF8C42" d="M685.155 650.024C705.006 650.024 875.166 649.163 878.185 650.456C878.878 651.828 878.691 652.79 878.647 654.333C877.974 665.602 878.662 685.734 878.673 697.66L878.819 788.001L685.437 787.897C685.319 782.019 685.302 775.864 685.389 769.978C685.979 730.098 684.468 689.864 685.155 650.024Z"/><path fill="white" d="M685.155 650.024C705.006 650.024 875.166 649.163 878.185 650.456C878.878 651.828 878.691 652.79 878.647 654.333L746.368 654.421L706.983 654.457C701.866 654.461 690.989 654.771 686.213 654.248C684.9 653.084 685.342 652.462 685.155 650.024Z"/><path fill="white" d="M160.603 433.48C182.299 432.845 206.9 433.431 228.764 433.47L324.73 433.452L324.779 592.529L160.485 592.585L160.603 433.48Z"/><path fill="white" d="M699.84 334.105C718.173 333.739 737.394 334.01 755.781 333.997L862.136 333.998C861.55 385.154 862.068 437.73 862.028 488.97L699.919 489.142L699.84 334.105Z"/></svg>