<?xml version="1.0" encoding="utf-8" ?><svg xmlns="http://www.w3.org/2000/svg" xmlns:xlink="http://www.w3.org/1999/xlink" width="1024" height="1024" viewBox="0 0 1024 1024"><path fill="#2ECC71" d="M0 0L1024 0L1024 1024L0 1024L0 0Z"/><path d="M143.898 464.534L143.602 197.689L143.561 148.412C143.548 140.878 142.892 121.082 144.629 114.923C147.329 113.346 181.136 113.878 186.951 113.853L269.538 113.668L729.692 113.861L835.042 113.977C842.286 113.978 877.04 112.655 880.326 115.917C881.239 133.732 880.525 158.405 880.517 176.688L880.46 293.117L880.346 472.518C880.398 510.775 880.226 549.032 879.831 587.287C880.711 657.082 878.028 727.781 879.705 797.435C885.718 803.432 891.494 810.244 897.639 816.421C896.726 823.595 897.141 840.836 897.131 848.633L897.023 909.754C871.775 910.76 841.784 909.886 816.014 909.944L641.668 909.979L127.592 910.006C126.713 903.527 127.124 886.834 127.134 879.326L127.393 816.068C132.566 810.496 138.937 804.576 144.469 798.703L144.077 576.208C143.523 545.984 143.72 514.876 143.583 484.569C143.844 477.921 143.462 471.29 143.898 464.534Z"/><path d="M513.202 349.789L513.867 349.805C519.608 356.872 525.733 365.46 531.246 372.822C542.418 387.534 553.483 402.326 564.44 417.197C587.619 448.044 611.509 478.624 634.482 509.558C646.011 525.304 657.685 540.945 669.502 556.477C673.75 562.106 681.295 572.817 685.606 577.579L686.421 576.922L878.425 576.593L878.479 577.024C878.745 579.322 878.613 586.401 879.2 587.261L879.831 587.287C880.711 657.082 878.028 727.781 879.705 797.435C885.718 803.432 891.494 810.244 897.639 816.421C896.726 823.595 897.141 840.836 897.131 848.633L897.023 909.754C871.775 910.76 841.784 909.886 816.014 909.944L641.668 909.979L127.592 910.006C126.713 903.527 127.124 886.834 127.134 879.326L127.393 816.068C132.566 810.496 138.937 804.576 144.469 798.703L144.077 576.208C145.882 576.299 147.704 576.316 149.473 576.621C151.76 577.157 165.187 576.951 168.593 576.939L212.596 576.742C237.945 576.637 263.293 576.668 288.641 576.832C304.969 576.889 322.185 577.156 338.438 576.582L339.048 577.638C340.104 576.687 349.855 563.662 351.155 561.949C362.376 547.252 373.43 532.428 384.315 517.48L475.711 395.576L495.884 368.583C498.198 365.485 505.417 355.578 507.901 353.432L509.525 353.497C510.033 352.152 510.588 350.902 511.156 349.583L513.202 349.789Z"/><path fill="#FF8C42" d="M509.525 353.497C510.033 352.152 510.588 350.902 511.156 349.583C517.903 362.67 524.218 375.915 530.885 389.013L617.528 561.738C627.271 581.464 636.94 601.068 646.483 620.908C653.341 635.167 661.927 649.85 668.117 664.45L449.303 664.144C418.334 664.061 385.637 664.633 354.827 664.047L453.646 467.647C465.828 443.684 477.795 419.612 489.545 395.433C496.151 381.932 503.492 367.231 509.525 353.497Z"/><path fill="#FF8C42" d="M338.438 576.582C326.829 591.63 315.226 606.958 303.596 621.943C293.51 634.938 279.563 654.626 268.515 666.267C226.914 671.816 185.893 681.076 145.942 693.935L145.757 611.836C145.746 607.842 145.407 579.988 145.948 577.378C147.403 576.708 147.909 576.754 149.473 576.621C151.76 577.157 165.187 576.951 168.593 576.939L212.596 576.742C237.945 576.637 263.293 576.668 288.641 576.832C304.969 576.889 322.185 577.156 338.438 576.582Z"/><path fill="#FF8C42" d="M686.421 576.922L878.425 576.593C877.629 582.606 878.075 606.329 878.079 613.796L878.142 692.381C865.765 688.386 850.451 684.442 837.753 681.178C811.727 674.487 780.259 666.465 753.403 664.797C748.952 660.162 739.27 646.816 734.827 641.013C718.585 619.796 702.966 597.944 686.421 576.922Z"/><path fill="#FECBA4" d="M513.202 349.789L513.867 349.805C519.608 356.872 525.733 365.46 531.246 372.822C542.418 387.534 553.483 402.326 564.44 417.197C587.619 448.044 611.509 478.624 634.482 509.558C646.011 525.304 657.685 540.945 669.502 556.477C673.75 562.106 681.295 572.817 685.606 577.579C688.816 582.246 692.524 586.972 696.034 591.428C714.933 615.416 732.214 641.249 751.781 664.709C724.917 664.037 696.544 664.564 669.524 664.503C667.871 660.464 665.827 656.144 663.822 652.265C654.507 634.251 645.574 616.146 636.667 597.931L559.886 443.55L538.828 401.665C530.453 385.337 520.604 366.566 513.202 349.789Z"/><path fill="#FECBA4" d="M339.048 577.638C340.104 576.687 349.855 563.662 351.155 561.949C362.376 547.252 373.43 532.428 384.315 517.48L475.711 395.576L495.884 368.583C498.198 365.485 505.417 355.578 507.901 353.432C506.365 358.306 499.181 372.714 496.61 378.118C486.75 398.582 476.71 418.959 466.49 439.245C429.365 514.162 389.865 588.961 353.496 664.021C338.544 663.299 323.567 663.243 308.61 663.854C296.345 664.424 282.001 665.843 270.14 666.08C274.815 661.107 279.835 654.5 284.135 649.066C292.524 638.465 300.786 627.765 308.92 616.967C318.177 604.82 330.585 589.859 339.048 577.638Z"/><path fill="#FF8C42" d="M307.527 665.212C328.553 663.803 357.348 665.539 379.737 665.554L546.329 665.766L683.475 665.919L729.89 665.912C738.768 665.924 749.774 665.647 758.418 666.529C799.502 670.721 838.439 683.427 878.209 693.415C877.816 726.427 877.215 765.326 878.184 797.935C825.45 796.96 770.574 797.652 717.75 797.772L145.945 798.046L145.896 695.105C185.169 683.531 224.735 673.151 265.479 668.164C278.044 666.626 294.769 665.865 307.527 665.212Z"/><path fill="white" d="M556.627 816.75L895.647 816.416L895.511 908.527L466.75 908.557L128.678 908.567C128.256 878.373 128.88 847.563 128.923 817.316L556.627 816.75Z"/><path fill="#A896FB" d="M170.745 799.25C254.883 798.195 340.68 798.995 424.925 798.995L879.257 799.002C884.076 803.861 889.373 809.958 894.042 815.077C881.388 815.626 865.642 815.222 852.75 815.245L129.613 815.99C135.456 810.309 139.825 805.558 145.232 799.494L170.745 799.25Z"/><path fill="#7B68EE" d="M144.833 131.899L879.05 132.018L878.987 393.591C878.942 416.838 879.185 440.523 878.921 463.728C878.47 464.923 877.618 467.469 876.974 468.439C875.867 461.87 875.321 454.999 874.335 448.357C872.693 437.685 870.455 427.114 867.629 416.693C847.374 344.672 803.44 281.578 742.92 237.594C656.143 175.174 547.811 150.503 442.563 169.19C348.553 185.184 261.804 236.239 206.371 314.42C176.813 355.562 157.201 402.999 149.078 453.002C148.207 458.354 145.649 473.068 146.047 478.167C145.989 480.325 146.204 483.038 145.172 484.678L144.138 483.787L143.583 484.569C143.844 477.921 143.462 471.29 143.898 464.534L144.943 460.21L144.833 131.899Z"/><path fill="#0C0234" d="M143.898 464.534L144.943 460.21C144.936 466.352 144.79 474.204 145.204 480.287C145.851 479.151 145.691 479.448 146.047 478.167C145.989 480.325 146.204 483.038 145.172 484.678L144.138 483.787L143.583 484.569C143.844 477.921 143.462 471.29 143.898 464.534Z"/><path fill="#8152CF" d="M876.974 468.439C877.618 467.469 878.47 464.923 878.921 463.728C878.709 467.909 878.541 472.165 878.174 476.329C877.857 474.546 876.933 470.026 876.974 468.439Z"/><path fill="#A896FB" d="M185.873 115.248L584.207 115.275L780.493 115.332C813.154 115.368 846.383 115.061 878.995 115.515C879.295 120.033 879.103 126.301 879.098 130.948C866.05 130.739 852.683 130.854 839.61 130.826L144.941 130.359C144.902 125.219 144.892 120.559 145.127 115.404C158.215 115.024 172.675 115.287 185.873 115.248Z"/><path fill="white" d="M761.708 447.85C762.945 449.061 765.398 466.271 765.876 469.316C772.98 470.875 780.024 472.941 787.267 474.532C781.543 476.252 772.117 477.382 766.052 478.241C764.782 485.564 763.376 492.862 761.835 500.133C760.49 498.716 758.016 481.74 757.541 478.593C750.456 477.139 742.793 475.868 735.639 474.516C742.613 473.146 750.16 471.281 757.196 469.759C758.939 462.004 760.509 455.74 761.708 447.85Z"/><path fill="white" d="M407.151 302.309C408.567 303.591 410.243 312.279 410.808 314.705C415.013 315.647 418.905 316.844 423.021 318.077C419.238 319.166 414.632 320.054 410.766 320.78C409.395 325.573 408.618 329.43 407.66 334.289C406.745 332.675 404.694 324.095 403.707 321.092C399.23 319.89 395.519 319.265 390.771 317.854C395.317 316.654 399.457 316.268 404.201 314.808C405.295 310.692 405.955 306.604 407.151 302.309Z"/><path fill="white" d="M251.143 432.911C252.506 434.674 253.298 438.664 253.875 440.94C256.289 441.446 258.413 441.656 260.445 442.984L260.521 443.727C258.782 445.044 256.532 445.192 254.305 445.612C253.345 448.617 252.528 450.685 251.308 453.594C250.075 451.012 249.323 448.565 248.43 445.863L238.886 442.853C241.923 442.004 245.771 441.339 248.92 440.714C249.611 437.811 250.22 435.744 251.143 432.911Z"/><path fill="white" d="M709.44 308.365C710.689 310.086 711.363 310.813 712.81 312.301L712.77 313.36C711.18 314.96 710.818 315.478 709.923 317.548C709.181 317.033 709.088 316.31 708.248 315.541C706.646 314.075 706.48 314.04 706.669 312.254C708.101 310.781 708.196 310.643 709.202 308.808L709.44 308.365Z"/><path fill="white" d="M543.038 228.038C544.474 230.82 545.593 230.74 545.44 233.029C543.964 234.721 543.898 235 543.49 237.219C542.131 235.956 540.391 233.473 540.467 231.625C541.765 230.203 542.03 229.712 543.038 228.038Z"/></svg>