<?xml version="1.0" encoding="utf-8" ?><svg xmlns="http://www.w3.org/2000/svg" xmlns:xlink="http://www.w3.org/1999/xlink" width="1024" height="1024" viewBox="0 0 1024 1024"><path fill="#7B68EE" d="M0 0L1024 0L1024 1024L0 1024L0 0Z"/><path d="M484.414 155.592C478.741 148.946 473.517 140.986 472.473 132.154C470.873 118.629 472.311 98.6555 480.61 87.3781C486.864 78.742 496.309 72.9608 506.845 71.3185C517.298 69.7577 527.937 72.5225 536.308 78.9758C547.911 87.8395 549.69 97.9057 551.538 111.371C554.69 123.89 551.725 140.784 543.572 150.676C542.44 152.05 540.501 154.088 539.633 155.404C540.242 159.025 540.251 162.247 540.358 165.908L601.627 166.017C613.548 165.999 626.421 165.36 638.026 167.025C647.989 168.453 659.022 179.404 659.851 189.334C660.478 196.854 660.111 205.791 660.07 213.407L660.025 259.244L659.994 384.896C659.991 406.119 659.517 429.335 660.073 450.407C668.295 437.834 673.491 440.062 687.169 439.79C693.201 439.669 699.412 439.73 705.453 439.709L781.011 439.567C781.542 436.906 782.933 431.607 782.111 429.2C777.766 427.468 772.418 419.72 770.477 415.492C765.87 405.454 763.599 393.727 767.223 383.093C767.831 371.419 770.836 362.31 779.825 354.207C787.669 347.108 798.054 343.49 808.61 344.179C819.291 344.833 829.277 349.69 836.386 357.687C843.458 365.782 844.893 372.763 845.746 382.932C847.315 396.554 845.918 411.106 837.222 422.213C835.45 424.435 833.47 426.483 831.31 428.33C830.148 430.067 831.393 437.081 831.623 439.82L898.116 439.965C909.205 439.964 921.807 439.485 932.879 440.624C937.504 441.482 941.887 444.545 945.121 447.704C953.642 456.025 951.777 469.757 951.806 480.852L951.889 512.678L951.914 622.007L951.986 950.513C911.212 950.949 869.569 950.535 828.737 950.55L658.405 950.609C658.181 925.032 658.09 899.455 658.131 873.878L658.068 685.522L463.837 685.462C431.841 685.434 398.388 685.869 366.482 685.155C366.893 773.602 366.846 862.051 366.341 950.497L206.778 950.607C162.162 950.413 117.544 950.508 72.9286 950.893C73.001 944.303 72.6788 937.579 72.6243 930.955L72.7891 600.439L72.7156 470.54L72.7871 433.829C72.7988 426.976 72.7492 419.806 73.1642 413.009C73.6756 404.633 85.0861 392.834 93.3488 391.845C105.239 390.422 118.657 391.019 130.742 391.038L191.53 390.924C191.603 387.368 192.032 379.922 191.005 376.8C183.264 372.443 180.848 356.417 180.044 348.607L180.015 347.638C179.643 332.547 180.03 317.835 191.254 306.558C198.591 299.187 208.605 295.418 218.908 295.384C229.493 295.312 239.668 299.469 247.176 306.93C258.647 318.48 258.59 328.646 258.566 343.343C258.88 357.03 257.987 366.142 248.153 377.536C247.979 377.658 247.805 377.78 247.631 377.902C247.19 381.744 247.336 387.029 247.331 391.001L364.944 391.217C365.603 344.386 365.08 296.174 365.088 249.229L365.081 211.93C365.082 206.513 364.809 195.636 365.579 190.759C366.545 184.704 369.422 179.116 373.79 174.812C378.983 169.595 385.766 166.365 393.184 166.143C403.369 165.838 413.637 165.989 423.834 166.007C443.797 166.079 463.761 166.048 483.723 165.913C484.277 161.813 484.385 159.741 484.414 155.592Z"/><path fill="#FBB486" d="M539.06 154.027C526.034 164.479 513.434 167.228 497.412 161.532C476.789 154.2 469.146 129.732 474.343 109.603C481.452 145.804 528.152 151.542 546.815 121.416C548.674 118.416 549.625 115.272 550.702 111.91L551.538 111.371C554.69 123.89 551.725 140.784 543.572 150.676C542.44 152.05 540.501 154.088 539.633 155.404L539.06 154.027Z"/><path d="M550.702 111.91L551.538 111.371C554.69 123.89 551.725 140.784 543.572 150.676C542.44 152.05 540.501 154.088 539.633 155.404L539.06 154.027C551.694 141.615 552.071 128.665 550.702 111.91Z"/><path fill="#FBB486" d="M181.033 338.249C183.492 343.463 184.996 346.756 189.069 350.976C199.817 362.113 215.804 366.172 230.704 362.323C240.036 359.911 248.78 353.477 254.421 345.698C255.271 344.527 256.217 342.082 257.052 340.599C257.691 341.684 257.468 342.495 257.515 343.953L258.566 343.343C258.88 357.03 257.987 366.142 248.153 377.536C247.979 377.658 247.805 377.78 247.631 377.902L246.299 377.576C234.625 389.89 215.519 392.335 200.748 383.936C197.196 381.916 194.538 379.142 191.643 376.297C183.657 367.295 182.383 360.823 181.149 348.954C180.992 345.501 181.048 341.731 181.033 338.249Z"/><path d="M258.566 343.343C258.88 357.03 257.987 366.142 248.153 377.536C247.979 377.658 247.805 377.78 247.631 377.902L246.299 377.576C256.62 366.348 257.663 358.562 257.515 343.953L258.566 343.343Z"/><path fill="#FF8C42" d="M169.754 392.19C178.161 391.482 195.142 391.975 203.975 391.983L264.042 391.93C277.61 391.993 291.193 397.888 300.636 407.572C316.096 423.428 316.17 440.776 316.152 461.195L316.112 491.175L316.038 599.132C308.013 599.044 299.988 599.05 291.963 599.15C286.603 599.178 280.514 599.496 275.263 598.515C271.614 597.833 270.538 595.47 268.71 592.481C268.201 582.814 268.588 569.753 268.602 559.905L268.613 501.84C268.607 495.569 269.061 475.603 267.783 470.845C266.107 475.222 267.507 488.61 267.084 492.95C266.14 502.621 268.556 582.968 266.476 586.194L171.573 586.61L171.814 506.733C171.829 499.143 172.42 475.41 170.995 469.763C170.001 472.213 170.253 488.058 170.247 491.722L170.27 557.141C170.303 567.793 170.545 579.279 170.074 589.925C169.897 593.913 167.709 595.934 164.703 598.258C159.096 599.515 128.761 599.064 121.021 599.075L121.112 492.321L121.192 459.737C121.246 451.521 121.106 443.595 122.391 435.445C125.941 412.922 146.947 393.817 169.754 392.19Z"/><path fill="#FF8C42" d="M464.827 167.178C466.559 166.987 468.829 166.971 470.576 166.968C495.793 166.917 521.023 166.975 546.24 166.928C554.479 166.913 561.755 166.631 569.852 168.596C578.451 170.616 586.334 174.947 592.649 181.122C609.367 197.521 609.479 214.234 609.362 235.768L609.198 265.672L609.31 374.032L559.965 374.042L559.965 289.134L559.982 262.542C559.995 259.179 560.631 248.18 559.022 246.095C557.978 247.536 558.491 347.655 558.507 359.125C558.496 359.954 558.407 360.676 558.331 361.502C556.535 362.744 476.352 361.993 466.893 361.995C467.295 331.259 466.895 300.421 467.099 269.676C467.148 262.274 467.364 254.041 466.598 246.748C464.799 250.309 465.573 359.006 465.293 373.895C449.495 373.461 432.361 373.784 416.482 373.959L416.863 269.054L416.874 236.036C416.876 233.749 417.017 230.813 416.88 228.635C415.445 205.771 424.711 185.099 444.83 173.319C451.262 169.552 457.311 168.287 464.827 167.178Z"/><path fill="#FF8C42" d="M751.887 441.168C754.294 440.929 757.731 440.923 760.229 440.902L823.585 440.924C833.159 440.902 842.709 440.848 852.311 440.889C865.579 440.946 879.173 448.318 888.617 457.317C902.172 470.234 901.488 482.273 901.472 499.496L901.479 527.091L901.65 643.062C888.65 642.994 870.946 643.886 858.146 642.514C857.035 642.395 855.186 640.594 854.335 639.775C853.36 611.111 854.633 580.664 854.162 551.906C854.03 543.857 854.881 520.201 853.748 513.267C852.568 516.736 852.909 541.078 852.887 546.631L852.898 626.557L852.794 631.563C821.331 631.95 789.295 631.621 757.789 631.588L757.951 551.229C757.942 545.519 758.651 515.864 756.896 513.332C756.152 515.405 756.444 534.494 756.449 538.151L756.291 604.304C756.24 614.288 756.8 624.578 756.163 634.519C756.032 636.559 755.853 640.365 754.429 641.842C752.378 643.969 714.163 643.1 708.516 643.149C707.945 631.589 708.138 619.099 708.138 607.444L708.312 547.024L708.319 512.536C708.321 503.722 707.975 494.97 709.319 486.235C712.892 463.014 728.304 444.857 751.887 441.168Z"/><path fill="white" d="M171.653 587.98L267.136 587.702C267.622 597.505 271.84 599.901 280.904 600.562C280.97 618.35 280.376 636.015 280.6 653.703L280.543 719.004C280.545 730.8 280.153 745.189 280.611 756.809L280.461 827.685C280.458 832.51 281.07 857.662 279.687 859.972C275.735 861.305 272.139 856.659 269.302 854.685C261.791 849.556 252.325 848.2 243.677 851.015C235.925 853.579 230.366 858.309 226.268 865.303L226.154 858.965L225.12 858.849C222.34 859.195 218.946 859.034 216.098 859.001L215.771 858.603C215.695 860.592 215.729 863.64 215.296 865.479C212.597 861.291 210.03 856.967 205.693 854.346C188.052 843.684 169.752 850.694 159.549 867.23C158.448 847.077 159.064 822.111 159.128 801.655L159.109 684.578C159.162 657.956 159.879 626.767 158.27 600.553C167.96 600.303 169.831 597.001 171.653 587.98Z"/><path fill="#2ECC71" d="M216.422 681.173C216.472 673.9 216.486 666.628 216.464 659.355C216.418 654.69 214.573 642.264 222.141 642.703C226.277 645.692 225.046 660.638 225.032 665.895L224.953 699.263L225.002 804.578C224.997 820.781 224.285 843.347 225.12 858.849C222.34 859.195 218.946 859.034 216.098 859.001C216.874 856.216 216.459 832.804 216.427 828.513C216.818 821.18 216.515 810.722 216.512 803.161L216.49 755.262L216.527 708.404C216.543 699.993 216.838 689.442 216.422 681.173Z"/><path fill="#072312" d="M215.296 865.479C214.755 853.923 215.083 840.641 215.082 828.954L215.076 766.479L215.127 688.513C215.122 675.899 214.948 663.285 215.003 650.672C215.02 646.846 215.274 642.109 219.978 641.433C223.36 640.947 225.982 643.371 226 646.749C226.035 653.657 226.011 660.578 226.015 667.49L226.035 712.062L226.154 858.965L225.12 858.849C224.285 843.347 224.997 820.781 225.002 804.578L224.953 699.263L225.032 665.895C225.046 660.638 226.277 645.692 222.141 642.703C214.573 642.264 216.418 654.69 216.464 659.355C216.486 666.628 216.472 673.9 216.422 681.173C216.838 689.442 216.543 699.993 216.527 708.404L216.49 755.262L216.512 803.161C216.515 810.722 216.818 821.18 216.427 828.513C216.459 832.804 216.874 856.216 216.098 859.001L215.771 858.603C215.695 860.592 215.729 863.64 215.296 865.479Z"/><path fill="#0C5229" d="M216.422 681.173C216.838 689.442 216.543 699.993 216.527 708.404L216.49 755.262L216.512 803.161C216.515 810.722 216.818 821.18 216.427 828.513C215.651 822.606 215.927 809.878 215.922 803.408L215.915 758.889L215.949 706.709C215.986 700.474 215.777 687.113 216.422 681.173Z"/><path fill="#2ECC71" d="M277.197 392.138C304.795 392.061 337.355 391.415 364.841 392.493L365.085 750.826L365.133 862.342C365.109 878.868 365.786 902.997 364.74 918.866C362.394 906.604 359.935 894.363 357.364 882.146C355.731 874.676 353.557 866.415 352.15 858.994L281.598 859.132C281.177 856.574 281.351 848.545 281.36 845.711L281.405 820.009L281.284 721.418C280.794 729.465 282.52 750.302 280.611 756.809C280.153 745.189 280.545 730.8 280.543 719.004L280.6 653.703C281.509 657.16 281.235 664.843 281.24 668.734C281.39 659.413 281.356 649.107 281.82 639.844L282.342 638.821C285.052 641.913 285.383 643.864 289.448 646.313C296.345 650.468 305.581 650.06 311.769 644.727C316.474 640.673 317.244 634.875 317.303 629.02C317.467 614.662 317.419 600.235 317.434 585.873L317.486 503.659L317.482 462.208C317.474 454.413 318.027 444.925 316.668 437.365C312.593 414.695 298.801 399.165 277.197 392.138Z"/><path fill="#072312" d="M280.6 653.703C281.509 657.16 281.235 664.843 281.24 668.734C281.39 659.413 281.356 649.107 281.82 639.844C282.773 651.643 281.986 674.91 281.973 687.406L281.931 778.952L281.913 832.046C281.923 837.482 282.253 854.686 281.598 859.132C281.177 856.574 281.351 848.545 281.36 845.711L281.405 820.009L281.284 721.418C280.794 729.465 282.52 750.302 280.611 756.809C280.153 745.189 280.545 730.8 280.543 719.004L280.6 653.703Z"/><path fill="#2ECC71" d="M97.2758 392.127C108.234 391.795 119.902 392.003 130.905 391.996C140.951 391.99 151.988 391.796 161.965 392.22C147.901 395.986 135.776 404.92 128.012 417.236C123.804 424.103 121.215 431.837 120.442 439.853C119.664 448.018 120.048 461.634 120.04 470.349L120.005 524.643L119.971 598.776C119.967 610.143 119.358 625.755 120.873 637.101C121.961 640.792 125.789 644.824 129.026 646.399C142.382 652.895 151.912 646.626 157.792 634.646C158.28 643.482 158.028 655.067 157.986 663.991L157.646 716.297L157.952 859.054L120.25 859.004L90.8 858.985C87.4949 869.825 85.4265 880.504 82.8315 891.441C79.6627 904.796 76.9269 917.694 74.2153 931.138C73.6462 923.012 73.9509 911.946 73.9565 903.648L73.9898 854.915L73.9934 702.986L73.9819 508.959L74.0126 450.931C73.9846 439.791 73.8817 428.665 74.0082 417.525C74.1622 403.954 84.3893 394.2 97.2758 392.127Z"/><path fill="white" d="M466.734 363.54L558.554 363.425L558.682 375.456L571.412 375.391L571.1 508.642C571.121 536.579 571.139 564.591 571.274 592.533C571.28 593.71 571.255 593.822 570.673 594.774L569.196 595.522C570.692 596.226 570.235 595.663 570.846 597.021C569.914 598.484 570.554 597.941 568.707 598.506C573.139 607.757 571.502 619.861 571.474 630.386C565.399 630.402 520.343 631.01 517.822 629.988C517.584 629.448 517.221 628.697 517.045 628.158L516.642 627.953L515.927 629.581C514.24 630.359 511.57 630.056 509.519 630.043C509.526 624.583 510.027 615.786 509.365 610.566C507.402 595.081 508.099 580.16 507.912 564.582C505.975 560.73 508.349 545.798 506.962 541.684C505.972 558.486 507.056 579.771 506.635 597.246C495.967 583.695 480.988 576.643 464.434 587.938C461.31 590.07 459.261 594.248 455.152 594.799L453.917 594.333C452.605 590.122 453.781 541.134 453.816 533.332L453.973 375.193C457.956 375.178 462.632 375.282 466.558 375.109L466.734 363.54Z"/><path fill="white" d="M517.045 628.158C518.17 624.204 516.95 613.122 517.652 608.236C518.673 601.122 523.065 593.847 528.689 589.506C534.212 585.228 541.214 583.332 548.141 584.239C557.53 585.519 563.359 591.287 568.707 598.506C573.139 607.757 571.502 619.861 571.474 630.386C565.399 630.402 520.343 631.01 517.822 629.988C517.584 629.448 517.221 628.697 517.045 628.158Z"/><path fill="#2ECC71" d="M508.006 421.459L516.848 421.274C516.642 442.678 516.587 464.083 516.683 485.488L516.36 569.31C516.337 584.643 516.707 600.013 516.223 615.32C516.115 618.721 516.382 626.611 515.927 629.581C514.24 630.359 511.57 630.056 509.519 630.043C509.526 624.583 510.027 615.786 509.365 610.566C507.402 595.081 508.099 580.16 507.912 564.582C508.703 517.772 508.049 468.516 508.006 421.459Z"/><path d="M506.934 419.876C510.846 419.754 514.148 419.714 518.054 419.838L517.896 548.074L517.893 578.587C517.896 582.327 517.655 591.988 518.392 595.119C520.78 594.786 526.292 589.802 528.694 587.99C538.871 580.314 550.846 580.605 561.06 588.366C563.61 590.304 567.539 594.41 569.196 595.522C570.692 596.226 570.235 595.663 570.846 597.021C569.914 598.484 570.554 597.941 568.707 598.506C563.359 591.287 557.53 585.519 548.141 584.239C541.214 583.332 534.212 585.228 528.689 589.506C523.065 593.847 518.673 601.122 517.652 608.236C516.95 613.122 518.17 624.204 517.045 628.158L516.642 627.953L515.927 629.581C516.382 626.611 516.115 618.721 516.223 615.32C516.707 600.013 516.337 584.643 516.36 569.31L516.683 485.488C516.587 464.083 516.642 442.678 516.848 421.274L508.006 421.459C508.049 468.516 508.703 517.772 507.912 564.582C505.975 560.73 508.349 545.798 506.962 541.684C506.037 520.495 506.794 498.493 506.815 477.253C506.834 458.155 506.687 438.958 506.934 419.876Z"/><path fill="#2ECC71" d="M390.942 167.153C394.741 166.672 407.716 167.053 412.527 167.082C426.968 167.108 441.409 167.219 455.849 167.416C444.16 171.211 436.172 176.49 428.236 186.129C421.989 193.839 417.894 203.064 416.367 212.869C415.108 220.843 415.53 241.727 415.513 250.753L415.432 321.955L415.155 381.356C415.134 390.297 414.799 400.114 415.334 408.767C415.99 419.379 429.852 426.321 439.357 423.048C445.823 420.822 448.226 418.484 452.002 413.341C453.23 430.207 452.439 456.262 452.463 473.949C452.562 514.504 452.42 555.059 452.036 595.612C437.934 596.092 421.87 595.644 407.625 595.55L384.288 595.445C379.391 613.721 375.595 632.197 370.504 650.417C368.924 656.07 367.593 661.882 366.235 667.596C365.792 660.074 366.162 649.131 366.19 641.233L366.383 589.892L366.375 435.917C366.007 380.443 365.977 324.967 366.287 269.492L366.411 219.382C366.43 210.765 366.325 202.1 366.572 193.491C366.948 180.415 378.349 169.161 390.942 167.153Z"/><path fill="#2ECC71" d="M571.594 167.234C572.484 167.176 573.375 167.132 574.267 167.102C577.128 167.026 580.031 167.064 582.895 167.057C596.618 167.023 610.396 166.974 624.112 166.986C634.764 166.995 642.43 167.326 650.635 175.105C660.426 184.389 659.083 192.522 659.048 204.688L658.993 230.207L658.979 316.62L658.98 446.65C658.918 453.132 658.451 459.568 658.377 466.147C658.046 503.412 657.951 540.679 658.091 577.946C658.124 605.367 657.899 632.094 658.609 659.52C655.184 649.946 650.544 628.858 648.411 618.758C646.661 610.572 644.388 602.566 642.766 594.327L572.658 594.462L572.871 465.181C572.886 448.268 572.153 426.871 572.866 410.474C575.754 415.638 577.513 419.464 583.429 422.034C593.5 426.409 605.008 422.684 609.551 412.362C610.421 410.386 610.691 406.392 610.719 404.138C610.873 391.27 610.665 378.114 610.599 365.269L610.537 299.386L610.548 245.021C610.548 228.957 612.399 213.158 605.724 198.116C598.128 180.996 588.198 174.327 571.594 167.234Z"/><path fill="#2ECC71" d="M863.634 441.181C883.615 439.964 905.091 441.641 925.196 440.971C932.231 440.736 938.835 443.004 943.643 448.239C946.692 451.558 949.556 456.231 949.91 460.855C950.372 469.017 950.178 477.517 950.202 485.719L950.426 527.126L950.26 665.24L950.48 843.508C950.567 871.94 951.585 902.587 950.715 930.688C947.493 919.548 944.196 902.544 941.492 890.75C939.049 879.933 936.458 869.15 933.72 858.404L865.98 858.563L866.106 678.947C868.914 683.973 871.121 687.405 876.727 689.915C886.783 694.416 897.679 689.344 901.887 679.432C902.773 677.344 902.933 674.4 902.955 672.105C903.076 659.881 902.992 647.647 902.986 635.42L902.959 565.534L902.932 511.726C902.925 502.378 903.188 492.163 902.745 482.915C902.137 470.228 892.13 456.966 881.97 450.077C876.028 446.047 870.184 443.744 863.634 441.181Z"/><path fill="#2ECC71" d="M672.669 441.074C681.586 440.707 692.249 440.996 701.353 440.99C716.185 440.897 731.018 440.945 745.849 441.135C745.089 441.331 744.331 441.536 743.576 441.751C731.159 445.307 720.534 455.323 714.451 466.506C710.58 473.662 708.172 481.517 707.368 489.613C706.779 495.976 707.019 504.965 707.014 511.579L707.002 547.512C707.001 582.377 706.427 617.442 707.873 652.255C708.093 657.561 707.192 675.604 709.003 679.988C716.124 697.227 737.099 695.386 744.397 678.047C744.851 702.357 744.205 726.508 744.075 750.779C743.881 786.525 744.032 822.271 744.528 858.014L718.75 858.003L670.94 858.021C668.369 871.658 666.502 885.922 664.063 899.638C662.692 907.351 661.773 914.738 659.76 922.348C659.329 915.574 659.537 906.616 659.528 899.733L659.497 860.521L659.525 740.261L659.586 567.63C659.548 531.866 659.508 496.107 659.792 460.344C659.871 450.405 663.119 444.698 672.669 441.074Z"/><path fill="white" d="M757.583 632.977L852.69 632.996C852.949 642.85 854.394 644.929 864.682 644.885C864.998 693.935 864.999 742.988 864.683 792.039C864.862 816.988 864.782 841.938 864.444 866.886C860.953 859.314 856.106 853.338 848.469 849.672C841.874 846.461 834.259 846.062 827.365 848.566C819.342 851.515 813.674 857.132 810.084 864.816C809.302 819.216 809.978 771.51 809.982 725.75C809.969 718.524 811.515 691.971 808.686 686.784C807.972 685.474 806.837 684.304 805.291 684.078C803.759 683.853 801.746 684.676 800.7 685.816C799.859 686.732 799.5 687.909 799.39 689.117C798.909 694.397 799.396 700.014 799.424 705.334L799.476 738.371L799.494 818.968C799.493 834.104 799.726 850.001 799.364 865.088C796.099 857.906 790.758 852.351 783.465 849.244C776.69 846.367 769.034 846.382 762.27 849.285C753.494 853.023 749.556 859.298 746.114 867.654C745.734 856.147 745.874 843.695 745.777 832.086C745.536 801.083 745.569 770.079 745.877 739.076L745.784 644.535C756.436 645.41 757.472 642.707 757.583 632.977Z"/><path fill="#2ECC71" d="M366.405 672.947L658.107 672.993L658.131 684.073C625.121 683.66 591.309 684.007 558.258 684.002L366.457 684.009L366.405 672.947Z"/><path fill="#2ECC71" d="M74.0468 937.979L364.997 938.07L364.999 948.989L74.1079 949.099L74.0468 937.979Z"/><path fill="#2ECC71" d="M659.821 938.102L950.143 938.38L950.165 949.012L659.906 949.162L659.821 938.102Z"/><path fill="white" d="M832.443 848.589C834.167 848.439 835.898 848.384 837.628 848.424C844.706 848.637 851.41 851.654 856.263 856.811C867.068 868.19 865.01 881.195 864.752 895.924L844.125 895.937C832.751 895.886 821.377 895.918 810.003 896.032C809.828 874.127 806.218 856.07 832.443 848.589Z"/><path fill="white" d="M182.979 851.111C202.925 849.018 217.919 860.854 216.167 881.33C215.811 885.487 216.11 891.414 216.078 895.744L193.625 895.757L159.306 895.793C159.208 889.5 158.919 882.819 159.293 876.552C160.102 862.989 170.666 854.324 182.979 851.111Z"/><path fill="white" d="M477.14 584.111C486.253 583.389 493.84 585.623 500.477 592.23C510.473 602.181 508.335 617.29 508.271 630.262L484.875 630.329C474.407 630.465 463.937 630.46 453.469 630.315C453.054 618.666 451.632 605.925 458.654 596.132C463.702 589.092 468.694 585.75 477.14 584.111Z"/><path fill="white" d="M769.569 848.599C770.504 848.543 771.44 848.507 772.377 848.493C779.566 848.403 785.823 851.008 791.142 855.938C801.714 865.734 799.292 881.965 799.184 895.955L777.122 895.996L746.026 896.041C745.857 875.354 743.502 854.353 769.569 848.599Z"/><path fill="white" d="M249.259 851.132C250.337 851.045 251.418 851.005 252.5 851.014C260.362 851.079 267.874 854.278 273.37 859.9C282.663 869.272 280.095 882.451 279.991 895.629C272.285 895.884 264.001 895.75 256.25 895.755L224.469 895.668C224.411 891.444 224.546 886.757 224.392 882.587C223.797 866.424 232.658 853.489 249.259 851.132Z"/><path fill="#FBB486" d="M768.058 384.116C771.182 396.09 775.515 401.584 786.132 408.116C806.881 420.882 838.936 411.259 844.656 385.956C845.413 403.695 844.155 415.104 830.47 427.446C815.249 440.851 798.853 441.055 782.648 428.717C770.727 418.479 762.784 399.479 768.058 384.116Z"/><path fill="#2ECC71" d="M802.452 685.904C809.833 685.718 808.824 690.309 808.768 696.203C808.159 760.819 809.056 825.449 808.94 890.063C808.937 891.822 809.069 894.046 808.363 895.654L807.125 895.942L800.75 895.904L800.743 753.5L800.72 710.993C800.72 703.885 800.64 696.534 800.872 689.423C800.92 687.936 801.599 687.064 802.452 685.904Z"/><path fill="#FBB486" d="M572.993 375.426L609.4 375.338C609.451 386.292 610.132 398.854 608.669 409.687C608.287 412.522 606.245 415.047 604.485 417.262C601.255 419.943 597.56 422.428 593.1 422.419C568.058 422.368 572.914 393.153 572.993 375.426Z"/><path fill="#FBB486" d="M416.571 375.232L452.469 375.188C452.463 381.93 452.566 388.71 452.437 395.447C452.277 403.799 453.697 410.616 447.546 417.106C439.839 423.476 428.993 425.049 421.514 417.441C419.352 415.203 417.832 412.425 417.112 409.398C415.871 404.388 416.515 381.631 416.571 375.232Z"/><path fill="#FBB486" d="M121.037 600.324C132.699 600.192 144.747 600.378 156.438 600.414C156.49 611.253 157.455 625.807 155.278 636.468C154.925 638.194 152.718 640.767 151.516 642.222C143.765 648.716 133.998 650.274 126.242 642.706C124.042 640.544 122.479 637.818 121.725 634.827C120.39 629.676 120.998 607.075 121.037 600.324Z"/><path fill="#FBB486" d="M282.32 600.49C293.574 600.399 304.829 600.382 316.083 600.439C316.113 607.192 316.224 613.966 316.162 620.717C316.079 629.684 317.438 635.919 311.253 643.273C304.182 649.118 294.151 650.042 287.339 643.269C285.146 641.063 283.593 638.303 282.848 635.283C281.741 630.848 282.313 607.071 282.32 600.49Z"/><path fill="#FBB486" d="M875.628 644.756C884.295 644.538 893.203 644.567 901.891 644.497C901.974 654.276 902.458 665.119 901.523 674.844C900.898 681.341 896.023 686.089 890.506 689.168C888.737 689.729 886.898 690.036 885.043 690.079C861.267 690.708 866.054 660.932 866.309 644.843L875.628 644.756Z"/><path fill="#FBB486" d="M709.114 644.501L744.217 644.544C744.259 657.101 746.691 675.103 738.788 684.888C731.186 691.154 722.003 692.98 714.347 685.454C712.168 683.293 710.634 680.567 709.919 677.582C708.822 673.129 709.305 650.879 709.114 644.501Z"/></svg>