<?xml version="1.0" encoding="utf-8" ?><svg xmlns="http://www.w3.org/2000/svg" xmlns:xlink="http://www.w3.org/1999/xlink" width="1820" height="1024" viewBox="0 0 1820 1024"><path fill="#6E4CEB" d="M0 0L1820 0L1820 1024L0 1024L0 0Z"/><path fill="#020000" d="M1484.85 151.8C1484.21 150.921 1483.58 150.035 1482.96 149.142C1481.6 147.159 1479.92 144.72 1480.35 142.367C1484.32 141.722 1488.46 146.194 1493.11 146.009C1494.04 144.027 1494.08 143.161 1494.46 140.977L1495.99 140.477C1499.76 141.506 1498.98 144.464 1502.21 145.801L1503.17 144.303L1504.99 145.693C1508.7 145.192 1513.87 143.881 1515.8 147.511C1513.08 152.384 1506.33 151.497 1506.26 158.053C1506.21 162.065 1504.73 171.026 1507.2 174.075L1509.8 172.814L1510.63 173.775C1510.65 185.249 1508.28 204.732 1506.94 216.566C1513.55 211.957 1520.25 207.475 1527.03 203.124C1520.35 212.94 1514.49 216.985 1509.88 228.668L1524.62 229.436C1521.03 249.232 1520.09 265.215 1507.02 280.879C1522.56 281.082 1538.11 281.101 1553.65 280.938C1562.72 280.904 1582.87 278.652 1588.85 285.849C1592.63 290.407 1590.91 297.787 1586.25 301.288C1574.43 303.116 1580.9 320.385 1579.28 329.467C1578.57 333.412 1578.23 341.884 1580.01 345.17C1583.3 347.483 1583.92 346.693 1588.73 346.838L1588.38 393.418C1606.93 402.656 1609.95 417.726 1597.16 433.768L1635.01 433.892C1635.13 447.773 1635.05 461.655 1634.77 475.533L1620.06 475.553C1620.1 495.694 1619.87 515.834 1619.38 535.969C1621.64 535.961 1627.54 535.615 1629.27 536.139C1651.05 542.739 1653.61 561.877 1638.67 576.567C1641.49 578.239 1646.19 578.013 1649.51 578.132L1641.21 578.7C1647.69 580.146 1678.71 581.287 1686.19 581.654C1682.96 626.354 1676.43 674.402 1674.07 718.739C1689.57 696.669 1711.85 669.003 1728.56 647.336C1741.17 656.033 1757.69 669.12 1769.98 678.614C1761.66 690.734 1749.1 706.203 1740.02 718.252L1693.4 781.289C1689.38 786.704 1667.83 814.663 1666.72 819.343C1663.91 831.242 1662.63 856.711 1661.17 870.536C1619.72 865.378 1583.72 866.629 1542.15 866.586L1391.6 866.374L1391.65 744.898L1402.64 744.828C1401.57 705.59 1402.39 662.69 1402.46 623.161L1419.39 623.213L1419.21 578.347C1437.74 578.914 1456.13 581.619 1450.26 554.061C1448.89 547.62 1445.03 543.268 1440.84 538.404C1439.04 538.43 1437.24 538.4 1435.44 538.314C1429.56 538.053 1425.55 537.089 1421.4 532.362C1418.64 529.204 1417.26 525.08 1417.55 520.899C1418.37 508.471 1429.51 506.7 1439.43 507.392L1439.39 472.73C1440.98 472.783 1445.96 473.079 1447.05 472.207C1459.52 462.282 1454.49 447.118 1447.88 436.31C1436.07 436.48 1418.89 438.098 1413.5 424.975C1407.59 410.575 1417.29 400.136 1429.1 394.672L1388.25 394.691L1388.2 346.803C1394.76 346.836 1401.32 346.807 1407.89 346.718C1435.54 330.725 1425.57 313.554 1405.57 299.407C1397.5 293.704 1401.75 281.729 1412.59 281.066C1419.94 280.616 1427.27 281.116 1434.87 281.131L1481.49 280.879C1469.7 267.394 1466.89 246.188 1464.97 228.738L1484.3 229.003C1479.92 222.263 1470.32 211.412 1464.83 204.644C1474.7 210.85 1478.77 213.524 1486.43 222.183C1485.4 214.895 1479.37 174.155 1481.16 170.485C1483.22 171.773 1482.92 172.049 1484.92 171.995C1485.56 168.331 1484.97 156.156 1484.85 151.8Z"/><path fill="#6E4CEB" d="M1621.39 580.636C1629.71 580.671 1631.2 580.321 1638.67 576.567C1641.49 578.239 1646.19 578.013 1649.51 578.132L1641.21 578.7C1640.6 578.764 1639.3 579.184 1638.65 579.373C1635.94 583.228 1634.62 615.778 1634.01 623.152L1620.94 623.132C1620.81 608.965 1620.96 594.797 1621.39 580.636Z"/><path fill="#0A7B0D" d="M1510.52 625.331C1551.5 625.647 1592.48 625.536 1633.46 624.998L1623.3 744.93L1529.18 744.968L1405.02 744.886L1405.02 625.482C1439.69 626.075 1475.79 625.663 1510.52 625.331Z"/><path fill="#FE9343" d="M1394.01 747.378L1610.26 747.488C1611.9 759.043 1617.45 788.076 1617.4 798.148C1617.31 815.746 1614.06 842.067 1612.39 860.229L1612.05 863.117C1611.62 863.552 1611.18 863.987 1610.74 864.422C1553.62 863.808 1447.42 863.999 1393.92 864.038L1394.01 747.378Z"/><path fill="#0A7B0D" d="M1390.97 349.009L1586.23 349.104C1586.27 363.56 1586.02 378.015 1585.47 392.461C1578.25 393.366 1564.82 392.98 1557.01 392.984L1505.44 392.957L1449.49 392.892C1442.43 392.881 1427.95 393.291 1421.49 392.723L1391.06 392.725L1390.97 349.009Z"/><path fill="#063C07" d="M1421.49 392.723C1445.15 390.734 1488.2 392.162 1513.24 392.16L1558.72 392.072C1566.46 392.05 1578.04 391.682 1585.47 392.461C1578.25 393.366 1564.82 392.98 1557.01 392.984L1505.44 392.957L1449.49 392.892C1442.43 392.881 1427.95 393.291 1421.49 392.723Z"/><path fill="#FE9343" d="M1442.09 580.896L1619.08 580.652C1618.84 594.782 1618.72 608.914 1618.73 623.047L1604.27 622.971L1421.95 623.1L1421.75 580.922L1442.09 580.896Z"/><path fill="#FEFEFE" d="M1443.88 537.808L1631.88 538.633C1648.12 547.754 1650.58 563.588 1635.4 575.373C1632.66 576.951 1629.37 578.095 1626.22 578.16C1607.29 578.551 1587.82 578.342 1568.92 578.328C1528.41 578.164 1487.91 578.234 1447.4 578.536C1457.84 561.79 1455.09 552.815 1443.88 537.808Z"/><path fill="#FDECCF" d="M1436.72 394.791L1534.55 394.799C1550.23 394.759 1567.17 394.464 1582.84 395.057C1588.33 395.265 1595.45 399.465 1598.85 404.071C1602.07 408.359 1603.36 413.789 1602.42 419.064C1601.12 426.544 1597.66 429.703 1591.81 433.829L1582.16 433.761C1560.05 433.751 1433.04 435.837 1424.46 432.354C1420.18 430.618 1416.96 426.555 1415.36 422.32C1413.54 417.507 1413.84 412.494 1416.11 407.874C1420.04 399.873 1428.93 397.44 1436.72 394.791Z"/><path fill="#FE9343" d="M1422.55 302.636C1471.52 301.286 1527.12 302.659 1576.54 302.691C1577.03 317.394 1576.7 331.973 1576.49 346.68L1558.29 346.682L1412.76 346.904C1430.62 333.003 1431.75 318.907 1415.15 303.594C1416.68 302.27 1420.01 302.709 1422.55 302.636Z"/><path fill="#FE9343" d="M1451.01 435.911L1632.86 435.7C1632.66 441.879 1633.43 469.248 1631.45 472.685L1629.16 473.027L1451.02 472.908C1458.75 457.278 1458.68 451.036 1451.01 435.911Z"/><path fill="#652CD6" d="M1634.04 650.218C1648.32 651.385 1663.01 652.09 1677.19 653.628C1672.74 700.666 1668.81 747.753 1665.39 794.878L1621.65 791.005C1621.78 788.923 1622.04 786.849 1622.26 784.775C1626.98 740.008 1629.76 695.024 1634.04 650.218Z"/><path fill="#0A7B0D" d="M1441.36 474.79C1499.93 475.424 1558.51 475.66 1617.09 475.499C1617.19 485.781 1616.66 497.727 1616.41 508.12C1614.51 510.772 1613.8 512.661 1609.96 512.448C1609.2 511.437 1608.4 510.329 1607.46 509.487C1604.25 506.624 1459.22 507.826 1441.49 507.781L1441.36 474.79Z"/><path fill="#FEFEFE" d="M1412.79 283.016C1432.48 282.869 1577.57 281.02 1583.84 284.537C1586.03 285.763 1587.91 288.312 1588.35 290.782C1588.73 292.933 1588.24 295.437 1586.91 297.194C1585.18 299.481 1583.03 300.272 1580.28 300.54C1524.76 301.221 1468.97 300.222 1413.43 300.537C1401.32 300.605 1399.17 285.105 1412.79 283.016Z"/><path fill="#FEFEFE" d="M1437.19 513.33L1591.93 513.013L1599.33 521.926C1596.42 524.865 1593.53 527.829 1590.67 530.817L1589.4 530.795C1569.34 530.468 1438.65 533.93 1431.5 530.104C1429.48 529.022 1428.14 527.09 1427.69 524.864C1427.15 522.24 1427.85 519.428 1429.43 517.28C1431.49 514.479 1434 513.911 1437.19 513.33Z"/><path fill="#FE9343" d="M1679.23 715.931C1685.21 719.074 1712.14 739.732 1717.26 744.616C1706.71 759.698 1694.41 776.001 1683.33 790.649C1677.92 798.068 1672.41 805.417 1666.81 812.696L1673.21 724.49L1679.23 715.931Z"/><path fill="#FDECCF" d="M1467.21 231.013C1484.44 230.514 1504.8 230.73 1521.93 231.137C1519.54 245.253 1517.85 258.323 1511.87 271.365C1509.07 275.583 1506.85 277.639 1503 280.823L1484.33 280.672C1471.4 266.752 1470.44 249.432 1467.21 231.013Z"/><path fill="#FE9343" d="M1729.1 650.35C1741.47 660.034 1753.98 669.551 1766.61 678.898C1758.52 689.5 1750.52 700.469 1742.51 711.171C1735.09 706.414 1712.02 687.785 1705.02 682.066C1712.63 671.488 1721.13 660.727 1729.1 650.35Z"/><path fill="#FEFEFE" d="M1621.17 793.515C1635.16 794.265 1651.84 795.393 1665.64 797.401C1665.18 804.357 1664.91 811.019 1663.54 817.861C1648.67 817.157 1633.92 815.484 1619.11 813.958C1619.96 807.162 1620.65 800.345 1621.17 793.515Z"/><path fill="#FE9343" d="M1703.44 684.116C1711.84 689.36 1732.58 706.312 1741.03 712.88L1729.24 728.203C1719.34 719.763 1702.21 708.06 1691.22 699.902L1703.44 684.116Z"/><path fill="#652CD6" d="M1638.02 605.27C1649.33 606.966 1669.56 607.827 1681.55 608.536C1680.49 616.152 1679.78 621.939 1679.4 629.597L1636.12 626.437C1636.91 619.396 1637.54 612.338 1638.02 605.27Z"/><path fill="#FEFEFE" d="M1635.64 628.535C1647.88 630.314 1665.65 630.626 1679.01 632.051C1678.58 638.304 1678.1 644.553 1677.57 650.799C1663.07 650.091 1648.58 649.116 1634.11 647.874L1635.64 628.535Z"/><path fill="#652CD6" d="M1618.96 816.185C1632.73 818.267 1649.2 819.593 1663.06 820.432C1662.56 826.669 1662.11 832.91 1661.71 839.154C1649.71 837.368 1630.19 836.52 1617.37 835.474C1618 829.053 1618.54 822.623 1618.96 816.185Z"/><path fill="#FEFEFE" d="M1616.68 837.925C1629.31 838.407 1649.4 840.446 1661.94 841.912L1660.12 857.569C1656.25 858.021 1622.26 854.529 1615.42 854.06C1615.87 848.684 1616.29 843.305 1616.68 837.925Z"/><path fill="#FCD757" d="M1689.66 701.825C1695.37 705.094 1721.96 725.329 1727.91 729.859L1718.81 742.01C1713.81 739.833 1686.57 717.907 1680.93 713.448L1689.66 701.825Z"/><path fill="#FEFEFE" d="M1639.03 588.193C1652.63 588.587 1669.55 589.935 1683.18 590.969C1682.45 595.173 1682.22 601.046 1681.92 605.418C1671.31 606.007 1649.67 603.968 1638.19 603.16L1639.03 588.193Z"/><path fill="#0A7B0D" d="M1483.19 174.196C1487.92 178.695 1489.12 178.642 1495.59 179.551C1496.15 195.995 1496.51 212.261 1497.43 228.701C1493.99 228.525 1492.89 229.075 1490.52 227.317C1487.52 219.177 1483.69 183.927 1483.19 174.196Z"/><path fill="#FCD757" d="M1482.05 143.982C1482.75 144.244 1485.45 145.714 1486.21 146.178C1492.2 149.853 1499.61 149.12 1506.5 148.838C1503.34 159.688 1503.53 163.513 1503.98 174.738C1504.16 175.543 1503.98 175.301 1503.29 176.424C1498.42 177.481 1491.3 177.603 1487.58 173.922C1486.32 168.633 1486.71 157.431 1486.73 151.516C1484.61 148.592 1483.74 147.178 1482.05 143.982Z"/><path fill="#0A7B0D" d="M1452.71 534.013C1457.32 532.872 1480.37 533.258 1486.2 533.217C1506.2 533.077 1529.52 532.231 1549.41 533.506C1567.86 533.716 1585.24 533.731 1603.75 534.25L1604.02 535.855C1601.21 534.541 1560.57 536.895 1554.42 535.969C1539.05 533.652 1446.16 539.299 1436.88 534.837C1440.75 533.793 1448.42 534.041 1452.71 534.013Z"/><path fill="#072508" d="M1452.71 534.013C1457.32 532.872 1480.37 533.258 1486.2 533.217C1506.2 533.077 1529.52 532.231 1549.41 533.506C1536.79 534.726 1514.93 534.329 1501.8 534.192C1486.51 534.034 1467.54 534.708 1452.71 534.013Z"/><path fill="#652CD6" d="M1615.5 856.265C1625.44 857.131 1650.16 858.785 1658.8 860.868C1659.94 862.934 1659.22 865.046 1658.96 867.829C1644.69 866.33 1629.72 865.473 1615.61 863.515C1614.31 861.101 1615.03 859.101 1615.5 856.265Z"/><path fill="#0A7B0D" d="M1506.98 177.041C1507.28 177.258 1507.72 178.214 1507.94 178.609C1507.4 187.731 1505.85 223.733 1500.84 228.957C1499.74 223.131 1497.99 185.203 1498.96 180.071C1502.07 178.554 1503.7 178.062 1506.98 177.041Z"/><path fill="#6E4CEB" d="M1612.87 747.59C1615.61 747.512 1621.04 747.064 1622.84 749.019C1623.3 756.514 1620.59 778.268 1619.72 786.579L1619.15 787.993C1617.24 784.917 1613.55 752.915 1612.87 747.59Z"/><path fill="#652CD6" d="M1639.43 581.473C1647.47 581.993 1678.7 582.39 1683.51 585.302L1684.28 588.592C1676.82 588.203 1643.74 587.24 1639.81 584.404L1639.43 581.473Z"/><path fill="#0A7B0D" d="M1609.96 512.448C1613.8 512.661 1614.51 510.772 1616.41 508.12C1616.28 516.905 1616.38 527.397 1615.43 535.992L1604.02 535.855L1603.75 534.25C1605.51 532.418 1607.36 530.284 1609.07 528.38C1609.54 522.788 1609.82 518.075 1609.96 512.448Z"/><path fill="#020000" d="M303.218 144.318C306.38 144.789 310.775 145.905 314.002 146.629C323.66 142.744 321.428 145.123 330.041 144.613C332.694 144.456 338.418 140.919 342.291 141.059C343.071 147.152 325.532 162.331 342.504 173.936C338.657 190.24 335.307 207.662 331.894 224.112C335.831 219.706 348.321 204.527 353.658 204.761C353.098 210.112 339.777 224.979 335.563 229.53L353.688 230.192C353.742 236.023 353.754 241.854 353.723 247.684C353.593 263.833 349.545 270.633 338.544 281.453C352.542 281.393 401.563 279.068 411.428 283.137C414.211 284.285 417.058 286.045 418.145 288.996C421.881 299.141 400.793 305.238 396.945 313.27C394.258 318.879 395.199 326.629 397.175 332.311C399.122 337.909 403.123 343.145 408.489 345.813C415.743 345.22 422.609 345.176 429.882 345.08C431.297 350.354 430.422 386.654 430.322 394.61C420.147 394.789 409.663 394.727 399.464 394.782C414.247 408.361 414.85 424.999 397.21 436.363L372.475 437.318C367.272 443.837 366.163 445.907 364.161 453.994C366.065 462.277 367.502 464.522 372.842 471.043L382.543 471.356C382.576 482.735 382.274 494.533 382.134 505.944C390.066 505.843 396.882 506.731 401.558 514.135C403.649 517.43 404.285 521.443 403.315 525.222C401.617 532.022 397.055 535.114 391.419 538.469L377.567 538.817C361.049 551.245 362.005 565.835 377.549 578.417C385.102 578.784 394.241 578.595 401.915 578.635C402.014 593.123 402.013 607.612 401.914 622.101L417.88 622.019L417.764 745.257L428.192 745.569L428.424 866.684L269.549 866.673C234.579 866.664 190.284 865.341 156.634 870.297C154.663 851.343 153.594 832.148 151.755 813.062L51.1905 678.795C64.6186 669.323 78.5459 658.588 91.5714 648.481C100.933 659.902 111.425 675.306 120.518 687.193C127.145 695.855 141.372 714.504 145.973 723.666C140.266 677.992 138.091 626.714 133.989 580.405C149.515 579.632 165.036 578.756 180.551 577.776C175.332 570.883 172.52 566.514 172.62 557.62C172.899 532.64 194.374 535.752 211.255 535.964C199.074 519.518 201.591 493.487 201.636 473.443C196.259 473.614 191.314 473.515 185.951 473.398C185.368 461.651 185.749 446.562 185.729 434.567L222.382 434.56C209.998 420.721 211.397 397.565 231.392 392.437L231.57 345.799C233.197 344.679 235.241 343.082 236.524 341.335C243.761 331.484 244.992 312.254 235.817 303.192C235.604 302.982 230.337 301.737 228.772 300.256C222.634 294.446 225.532 282.548 234.228 281.525C243.881 280.725 253.923 281.057 263.612 281.095C280.744 281.186 297.877 281.174 315.01 281.059C314.316 280.425 313.638 279.775 312.974 279.109C296.872 262.983 298.162 250.827 298.237 229.971L315.15 229.972C311.212 223.554 298.994 210.147 298.231 204.683L299.463 204.339C306.883 208.041 313.789 216.477 319.479 222.743C317.004 214.137 309.204 183.547 310.624 176.275C314.108 158.43 321.728 161.963 303.218 144.318Z"/><path fill="#0A7B0D" d="M408.489 345.813C415.743 345.22 422.609 345.176 429.882 345.08L428.692 347.323C428.718 362.429 428.589 377.535 428.304 392.639L233.743 392.771L233.685 347.386C242.144 344.529 282.982 346.801 295.581 346.347C321.974 345.396 353.367 347.144 380.142 346.584C386.766 346.446 403.246 347.586 408.489 345.813Z"/><path fill="#072508" d="M408.489 345.813C415.743 345.22 422.609 345.176 429.882 345.08L428.692 347.323L309.54 347.56C285.185 347.588 257.755 348.201 233.685 347.386C242.144 344.529 282.982 346.801 295.581 346.347C321.974 345.396 353.367 347.144 380.142 346.584C386.766 346.446 403.246 347.586 408.489 345.813Z"/><path fill="#0A7B0D" d="M194.82 623.935C267.085 625.256 343.021 624.061 415.583 624.066L415.032 745.01L195.287 745.293L194.82 623.935Z"/><path fill="#FE9343" d="M203.881 747.655L425.942 747.755C425.456 774.378 426.138 801.389 425.845 828.029C425.719 839.439 426.269 852.957 425.578 864.2L202.842 864.114L203.881 747.655Z"/><path fill="#FE9343" d="M203.797 580.583L399.71 580.713C399.648 594.38 399.512 608.046 399.303 621.712C335.455 620.671 268.089 621.775 203.952 621.708C203.735 608.124 203.846 594.198 203.797 580.583Z"/><path fill="#FDECCF" d="M311.244 538.226C331.98 538.106 353.607 537.68 374.269 538.245C359.765 552.385 359.554 564.134 373.657 578.605L246.606 578.424C232.071 578.35 217.544 578.495 203.012 578.601C195.969 578.653 189.668 578.874 183.3 575.291C173.739 569.911 173.071 556.711 177.193 547.697C179.128 543.466 182.348 541.179 186.095 538.701C196.367 537.693 217.886 538.314 228.954 538.303L311.244 538.226Z"/><path fill="#FDECCF" d="M229.841 394.977C250.676 394.993 386.646 393.018 395.744 396.029C400.177 397.496 403.751 401.326 405.694 405.48C408.202 410.84 408.759 417.601 406.679 423.203C404.64 428.691 400.135 432.249 394.991 434.628C374.83 435.337 234.288 436.454 225.16 432.87C222.06 431.653 219.933 428.343 218.773 425.353C216.196 418.711 216.269 410.558 219.221 404.045C221.443 399.145 224.918 396.768 229.841 394.977Z"/><path fill="#0A7B0D" d="M203.894 473.555C261.268 472.06 322.384 473.505 380.266 472.96L380.191 506.655C364.417 507.256 346.76 506.924 330.848 506.96C340.536 510.475 369.933 504.416 381.007 508.749C382.137 509.191 384.433 509.433 385.697 509.612C384.077 511.177 249.506 510.883 235.238 510.664C229.049 510.518 222.862 510.301 216.678 510.015L216.325 510.377C219.344 510.875 222.403 511.461 225.454 511.624C222.4 511.826 217.304 512.476 214.649 511.55C214.208 510.653 213.479 509.024 212.955 508.261C209.382 511.486 208.383 513.314 205.754 517.413C203.897 506.749 204.083 485.333 203.894 473.555Z"/><path fill="#191F1A" d="M212.955 508.261C220.412 504.692 315.51 506.741 330.848 506.96C340.536 510.475 369.933 504.416 381.007 508.749C382.137 509.191 384.433 509.433 385.697 509.612C384.077 511.177 249.506 510.883 235.238 510.664C229.049 510.518 222.862 510.301 216.678 510.015L216.325 510.377C219.344 510.875 222.403 511.461 225.454 511.624C222.4 511.826 217.304 512.476 214.649 511.55C214.208 510.653 213.479 509.024 212.955 508.261Z"/><path fill="#FE9343" d="M251.268 302.664C301.651 302.354 352.037 302.311 402.421 302.537C395.424 311.132 389.278 323.606 395.802 334.205C397.795 337.443 399.99 340.711 401.093 344.369C399.795 345.217 395.605 344.919 393.785 344.915L236.937 345.027C246.819 330.705 246.929 318.361 239.528 302.911L251.268 302.664Z"/><path fill="#FE9343" d="M188.021 436.705L369.525 436.983C362.077 447.211 360.173 454.486 366.082 465.856C367.394 467.831 367.689 468.389 368.554 470.597C365.231 471.464 326.254 471.05 320.776 471.05L188.186 471.169C188.274 459.681 188.219 448.192 188.021 436.705Z"/><path fill="#652CD6" d="M179.709 651.082C181.751 650.566 181.645 650.52 183.603 651.219C184.623 655.139 186.449 685.593 186.936 691.856L194.935 793.309C182.436 793.777 169.651 795.043 157.073 795.721C154.917 795.849 155.915 796.058 153.981 795.031C152.232 784.74 151.669 764.785 150.581 753.151C147.486 720.052 145.883 686.132 142.201 653.09C154.323 652.147 167.102 652.041 179.709 651.082Z"/><path fill="#FEFEFE" d="M232.471 283.571C288.832 281.372 347.4 284.843 404.015 283.415C415.17 283.134 419.588 292.942 410.307 299.973C399.567 300.84 386.465 300.307 375.559 300.328L313.111 300.421L263.633 300.463C254.315 300.466 244.729 300.744 235.455 300.084C225.104 299.348 226.258 289.409 232.471 283.571Z"/><path fill="#FEFEFE" d="M227.547 513.911C280.124 513.029 340.922 512.973 393.419 513.95C393.727 519.398 394.745 526.468 391.62 530.85C352.353 531.192 313.085 531.305 273.817 531.188C259.664 531.227 243.728 531.851 229.56 531.07C223.841 530.754 225.959 517.946 227.547 513.911Z"/><path fill="#FDECCF" d="M300.682 231.971L351.151 232.045C351.349 249.322 353.501 259.4 342.977 273.611C339.738 277.385 338.323 278.451 334.33 281.509C333.124 281.587 331.916 281.644 330.707 281.682C301.841 282.55 301.03 252.938 300.682 231.971Z"/><path fill="#FE9343" d="M140.072 719.184C141.255 720.369 144.807 725.632 145.982 727.3C148.903 753.308 149.746 782.837 152.112 809.381L136.174 787.808C125.564 773.958 115.058 760.029 104.657 746.021C116.266 736.819 128.074 727.872 140.072 719.184Z"/><path fill="#FE9343" d="M90.7678 652.327C92.9245 653.296 112.762 681.035 116.003 685.519C104.514 693.032 90.9791 703.215 79.6554 711.253C76.5728 710.007 57.9535 683.891 54.5611 679.496C64.5236 671.189 79.7822 660.751 90.7678 652.327Z"/><path fill="#6E4CEB" d="M182.077 579.306C188.991 580.738 194.399 580.56 201.435 580.556C201.608 590.564 202.396 610.396 201.365 619.467C199.086 622.678 196.88 618.906 192.928 621.801C192.105 625.82 192.582 645.552 192.632 651.09L193.374 717.871C193.271 721.453 192.907 724.364 192.472 727.921C189.546 694.026 187.071 660.094 185.048 626.133C184.056 610.433 184.131 594.894 182.077 579.306Z"/><path fill="#FE9343" d="M116.171 687.808C119.516 688.933 126.441 699.737 128.911 703.174C117.351 710.936 104.816 719.07 93.6949 727.298C92.4363 728.02 93.0992 727.733 91.2973 727.579C87.9814 724.423 83.6588 717.86 80.8729 713.924C91.1434 705.609 105.361 695.761 116.171 687.808Z"/><path fill="#652CD6" d="M175.566 606.61C178.95 606.44 178.431 605.92 180.654 607.45C182.615 613.324 182.174 620.099 182.361 626.493C171.01 627.296 159.652 627.976 148.287 628.535C144.776 628.997 143.753 629.666 141.136 627.571C139.07 622.527 139.549 614.42 139.285 608.431C151.388 608.033 163.484 607.426 175.566 606.61Z"/><path fill="#FEFEFE" d="M188.928 795.931C192.784 795.657 192.52 795.054 195.269 796.745C197.433 801.316 197.274 809.131 197.619 814.548C186.194 816.059 174.366 816.648 162.845 817.399C158.587 817.572 158.622 818.269 155.629 816.377C153.132 811.377 153.728 804.31 153.573 798.386C165.351 797.475 177.137 796.657 188.928 795.931Z"/><path fill="#FDECCF" d="M167.506 629.778C171.751 629.379 178.273 629.407 182.695 629.285C183.226 635.736 183.668 642.193 184.021 648.656C175.389 648.999 166.761 649.425 158.138 649.934C153.09 650.377 147.41 650.512 142.301 650.749C141.453 644.408 140.911 638.067 140.319 631.699L167.506 629.778Z"/><path fill="#652CD6" d="M185.806 818.294L197.846 817.456C198.584 824.024 198.969 829.523 199.273 836.129C189.053 836.737 178.84 837.464 168.637 838.311C164.795 838.81 160.475 839.115 156.579 839.48C156.243 833.188 155.661 826.587 155.206 820.275C164.949 819.977 175.99 818.968 185.806 818.294Z"/><path fill="#FCD757" d="M129.374 705.625C132.612 706.481 137.143 714.253 139.289 717.389C126.865 725.692 114.853 734.597 103.297 744.071C100.097 740.178 96.0845 734.446 92.9914 730.294C105.193 722.181 117.321 713.957 129.374 705.625Z"/><path fill="#FDECCF" d="M173.866 588.847C176.331 588.618 177.165 588.3 179.299 589.319C181.764 592.944 181.281 599.423 181.405 604.107L146.714 605.491C142.716 605.997 141.941 606.482 139.186 604.553C137.267 601.426 137.559 594.502 137.421 590.521L173.866 588.847Z"/><path fill="#FEFEFE" d="M195.969 838.603C198.376 838.548 197.266 838.284 199.403 839.479C200.882 843.22 200.663 848.964 200.765 853.141C187.575 853.995 174.128 855.199 160.93 856.246L159.084 856.432C156.427 853.799 156.619 846.07 156.389 841.925C169.392 840.38 182.89 839.548 195.969 838.603Z"/><path fill="#FDECCF" d="M338.082 144.169C338.782 151.66 328.285 154.092 336.21 173.434C325.827 177.552 325.238 179.996 314.95 173.26C317.234 164.723 319.358 156.727 312.457 150.064L311.743 149.382L311.82 148.655C319.624 149.537 330.945 147.998 338.082 144.169Z"/><path fill="#652CD6" d="M190.517 856.365C195.162 855.876 196.328 855.252 199.919 857.708C200.967 860.661 200.934 859.42 200.087 862.391C197.102 865.485 173.372 866.143 166.855 866.838C163.898 867.256 160.955 868.182 158.727 866.109C158.026 862.671 157.855 863.969 159.028 861.013C164.289 856.824 182.549 856.9 190.517 856.365Z"/><path fill="#6E4CEB" d="M195.331 747.663C197.933 747.715 198.815 747.561 201.186 748.626C202.494 753.991 201.125 810.157 200.452 816.848C198.655 809.39 192.93 751.969 195.331 747.663Z"/><path fill="#652CD6" d="M171.087 580.82C173.524 580.566 174.905 580.606 177.36 580.693C180.306 582.464 179.609 581.497 180.565 584.194L179.767 585.694C175.017 586.947 153.272 587.738 146.85 588.068C142.363 588.487 139.376 589.758 136.659 586.119L137.172 584.392C142.14 581.223 163.941 581.263 171.087 580.82Z"/><path fill="#443165" d="M260.178 534.646C266.297 533.91 295.588 534.006 302.558 534.199C324.281 534.8 355.319 532.995 376.059 535.418C368.397 535.835 356.243 534.921 349.615 536.085C336.845 532.799 266.534 538.463 260.178 534.646Z"/><path fill="#6E4CEB" d="M327.08 185.707C329.362 185.672 331.06 185.334 332.856 186.576C334.672 191.303 329.925 204.168 328.39 210.465C328.163 211.989 328.204 212.773 327.227 213.967C326.576 205.255 326.975 194.586 327.08 185.707Z"/><path fill="#9F77F3" d="M318.507 202.755C318.052 197.845 315.139 189.501 316.934 185.163C318.989 184.723 318.167 184.695 320.457 186.141L320.573 189.043C320.653 192.775 322.058 223.451 322.202 223.096C320.289 219.007 318.699 207.473 318.507 202.755Z"/><path fill="#4483B6" d="M318.507 202.755C320.993 198.837 320.28 194.367 320.573 189.043C320.653 192.775 322.058 223.451 322.202 223.096C320.289 219.007 318.699 207.473 318.507 202.755Z"/><path fill="#009A00" d="M335.631 175.985C336.147 178.136 336.342 180.691 335.314 182.68C332.945 184.647 329.664 184.164 326.496 184.127C326.469 183.657 326.818 182.298 326.938 181.754C329.372 178.592 332.018 177.7 335.631 175.985Z"/><path fill="#6A6C3F" d="M323.519 185.42C325.507 189.257 325.142 216.16 324.834 221.988C324.105 214.538 321.818 191.675 323.519 185.42Z"/><path fill="#020000" d="M1098.34 765.045L1099.41 765.785C1100.67 768.69 1100.32 780.166 1100.32 784.013C1107.71 783.951 1116.78 783.213 1124.27 782.801C1124.13 789.854 1124.06 796.909 1124.06 803.964C1130.41 804.244 1137.18 804.243 1143.56 804.342C1146.07 810.861 1148.96 821.047 1151.17 827.953L1163.9 828.229C1171.85 839.324 1186.86 864.548 1193.75 876.493C1166.78 877.222 1136.05 876.488 1108.86 876.494L937.723 876.705C937.197 877.327 936.652 877.932 936.09 878.52C922.647 892.733 896.697 889.684 882.998 876.527L651.976 876.536L627.784 876.674L652.5 833.427L673.474 833.664C674.618 824.43 676.559 815.141 678.337 805.995C681.919 806.13 684.218 806.34 687.763 805.682C689.67 802.768 707.014 781.879 709.626 780.112C711.778 781.526 710.056 783.492 712.032 787.167C714.951 785.485 718.202 780.389 720.362 777.457L720.934 764.845C750.446 796.534 811.453 779.605 846.115 784.296C856.111 785.66 865.751 788.938 874.507 793.95C893.418 804.84 903.538 820.273 909.081 841.028C911.9 831.157 914.668 824.268 920.895 816.036C959.311 765.253 1014.21 790.101 1067.32 782.667C1080.73 780.791 1090.41 775.946 1098.34 765.045Z"/><path fill="#FEFEFE" d="M669.519 835.983C706.328 836.661 743.301 835.274 780.076 835.452C826.86 835.679 875.287 822.217 909.479 862.184C937.433 827.485 975.126 833.529 1014.72 835.686C1028.91 836.46 1044.56 835.944 1058.82 835.747L1078.86 835.737L1150.32 835.494C1155.71 845.027 1161.2 854.511 1166.76 863.946C1112.33 863.329 1056.94 863.716 1002.46 863.849C975.02 863.916 936.155 862.594 910 864.087C902.249 863.53 889.527 863.853 881.369 863.827L826.872 863.706L654.369 863.929C659.057 854.523 664.869 845.759 669.519 835.983Z"/><path fill="#0A7B0D" d="M1170.38 864.311C1167.56 860.035 1153 836.529 1153.16 833.085C1154.6 830.239 1153.67 831.156 1156.79 829.754C1159.75 829.897 1162.13 830.821 1163.84 833.265C1172.38 845.5 1182.33 861.856 1189.64 874.648L1018.76 874.826C992.617 874.846 962.929 874.215 937.001 875.059C921.171 890.398 900.02 886.803 883.425 874.856L631.923 874.602C639.26 861.787 647.071 848.55 654.025 835.581L666.966 835.642C661.965 845.209 654.447 856.785 650.23 865.943C676.956 867.742 714.934 866.647 742.238 866.719C789.054 866.842 837.731 867.325 884.484 866.282C889.525 863.894 905.605 868.453 910 864.087C936.155 862.594 975.02 863.916 1002.46 863.849C1056.94 863.716 1112.33 863.329 1166.76 863.946L1170.38 864.311Z"/><path fill="#020000" d="M1166.76 863.946L1170.38 864.311L1169.51 865.709C1160.75 867.14 1139.75 866.707 1130.2 866.711L1060.45 866.709L947.408 866.738C929.28 866.741 902.248 867.365 884.484 866.282C889.525 863.894 905.605 868.453 910 864.087C936.155 862.594 975.02 863.916 1002.46 863.849C1056.94 863.716 1112.33 863.329 1166.76 863.946Z"/><path fill="#FDECCF" d="M1096.61 771.527L1097.45 772.864C1097.61 780.748 1099.35 791.768 1094.37 798.407C1079.6 818.069 992.974 806.164 966.771 810.312C944.035 813.912 926.338 823.645 912.731 842.456C912.444 842.256 912.013 841.315 911.807 840.937C913.507 829.395 920.321 819.998 927.642 811.33C972.497 758.225 1053.49 807.875 1096.61 771.527Z"/><path fill="#FDECCF" d="M722.558 770.189C752.397 792.227 793.986 786.274 828.87 785.435C851.139 784.899 869.883 790.103 886.315 805.75C896.908 815.836 906.167 829.803 906.538 844.828C903.528 838.9 899.523 833.533 894.698 828.961C871.364 806.542 842.549 809.319 813.953 809.588C796.977 809.671 780.003 809.885 763.03 810.23C729.043 810.636 722.443 802.149 722.558 770.189Z"/><path fill="#FDECCF" d="M719.588 782.063C719.993 783.055 720.948 787.529 721.116 788.612C725.342 815.902 755.332 812.407 776.035 811.936C787.007 811.297 799.213 812.153 810.037 811.505C845.953 809.355 885.461 810.601 905.312 846.507C906.543 848.732 907.844 851.592 907.048 854.225L905.612 854.398L902.317 851.291C856.831 808.615 767.101 853.287 720.236 820.739C712.594 815.431 711.574 803.843 711.053 795.131C713.854 789.447 715.8 787.037 719.588 782.063Z"/><path fill="#FDECCF" d="M1057.06 833.015C1043.05 833.778 1029.02 833.931 1015 833.472C985.386 832.21 954.927 827.351 927.845 842.672C923.011 845.406 916.181 853.141 911.366 854.471L910.707 853.251C911.818 847.199 917.19 839.171 921.431 834.871C945.29 810.677 973.873 810.497 1005.35 811.483C1022.47 812.019 1040.73 811.728 1057.81 811.781C1067.11 811.81 1089.63 808.78 1095.28 801.127C1097.72 797.817 1098.51 792.334 1102.49 788.093C1102.98 789.546 1102.54 788.968 1103.97 789.782C1105.06 788.266 1105.49 787.426 1107.07 786.389L1109.13 788.498C1110.65 788.028 1110.9 787.637 1112.04 786.549L1112.41 786.187C1113.27 790.853 1108.95 804.348 1106.53 808.465C1099.9 819.77 1091.37 825.321 1079.18 828.885C1071.41 831.106 1065.13 832.211 1057.06 833.015Z"/><path fill="#FDECCF" d="M1081.08 830.913L1081.92 830.684C1094.36 827.211 1102.64 819.209 1109.15 808.456C1114.29 799.957 1113.4 792.205 1116.1 787.573C1117.8 787.284 1118.56 787.95 1120.09 788.79C1120.43 788.077 1120.76 787.383 1121.08 786.661C1122.2 793.079 1121.17 799.211 1121.43 805.689C1121.54 808.36 1125.26 815.388 1125.01 817.223C1123.05 831.772 1102.45 833.585 1091.01 833.165C1086.88 833.014 1082.45 833.346 1078.64 832.651C1078.93 832.216 1080.53 831.273 1081.08 830.913Z"/><path fill="#FDECCF" d="M705.763 786.427C713.63 796.863 706.412 806.335 715.06 819.171C721.345 828.5 738.784 831.051 740.412 833.405L736.931 833.757C732.517 833.813 703.747 834.923 701.986 832.498C695.046 822.937 699.529 796.017 705.763 786.427Z"/><path fill="#FDECCF" d="M1130.79 805.972C1134.07 806.251 1136.16 805.714 1137.81 808.976C1141.08 815.44 1140.13 825.864 1140.07 832.923L1123.94 833.071C1121.3 833.135 1118.35 833.547 1116.14 832.394C1126.83 823.182 1128.93 819.45 1130.79 805.972Z"/><path fill="#FDECCF" d="M680.238 808.036C682.737 807.99 684.922 808.137 687.4 808.291C689.074 810.889 686.834 815.357 688.054 820.22C689.428 825.693 691.054 828.319 693.71 833.152L692.343 833.895L675.964 833.888C677.316 825.259 678.741 816.641 680.238 808.036Z"/><defs><linearGradient id="gradient_0" gradientUnits="userSpaceOnUse" x1="688.73755" y1="810.64435" x2="701.66315" y2="817.60052"><stop offset="0" stop-color="#FFEBC4"/><stop offset="1" stop-color="#FDE7D7"/></linearGradient></defs><path fill="url(#gradient_0)" d="M696.253 796.79L698.059 797.933C697.905 806.855 695.329 815.663 696.942 824.573C697.406 827.132 697.68 829.703 697.989 832.284L696.872 832.313C688.8 822.166 686.606 806.566 696.253 796.79Z"/><path fill="#FEFEFE" d="M1142.27 812.248C1144.59 814.245 1148.68 828.848 1149.92 832.777C1147.58 833.019 1146.97 832.947 1144.61 832.722C1141.23 829.593 1142.55 818.376 1142.27 812.248Z"/></svg>